<?xml version="1.0" encoding="UTF-8"?>
<!-- Generator: Adobe Illustrator 24.0.0, SVG Export Plug-In . SVG Version: 6.00 Build 0)  -->
<svg version="1.1" xmlns="http://www.w3.org/2000/svg" xmlns:xlink="http://www.w3.org/1999/xlink" x="0px" y="0px" viewBox="0 0 600 1500" style="enable-background:new 0 0 600 1500;" xml:space="preserve">
<style type="text/css">
	.st0{fill:#c9c9c9;}
	.st1{fill:none;stroke:#86605C;stroke-width:2;stroke-linecap:round;stroke-linejoin:round;}
	.st2{fill:none;stroke:#86605C;stroke-width:2;stroke-linecap:round;stroke-linejoin:round;stroke-dasharray:12.0107,12.0107;}
	.st3{fill:none;stroke:#86605C;stroke-width:2;stroke-linecap:round;stroke-linejoin:round;stroke-dasharray:14.0203,14.0203;}
	.st4{fill:none;stroke:#86605C;stroke-width:2;stroke-linecap:round;stroke-linejoin:round;stroke-dasharray:11.893,11.893;}
	.st5{fill:none;stroke:#86605C;stroke-width:2;stroke-linecap:round;stroke-linejoin:round;stroke-dasharray:11.9775,11.9775;}
	.st6{fill:#bfe44c;fill-opacity:0.7;stroke:#000000;stroke-width:1;stroke-miterlimit:10;}
	.st7{fill:#7ea730;fill-opacity:0.7;stroke:#000000;stroke-width:1;stroke-miterlimit:10;}
	.st8{fill:#d09c72;fill-opacity:0.7;stroke:#000000;stroke-width:1;stroke-miterlimit:10;}
	.st9{fill:#7bb539;fill-opacity:0.7;stroke:#000000;stroke-width:1;stroke-miterlimit:10;}

	.st55{fill:#e7c900;fill-opacity:0.7;stroke:#000000;stroke-width:1;stroke-miterlimit:10;}
	.st56{fill:#9f3535;fill-opacity:0.7;stroke:#000000;stroke-width:1;stroke-miterlimit:10;}

	.st6:hover{fill:#95b13f;fill-opacity:0.6;stroke:#444444;stroke-width:1;stroke-miterlimit:10;}
	.st7:hover{fill:#5a7723;fill-opacity:0.6;stroke:#444444;stroke-width:1;stroke-miterlimit:10;}
	.st8:hover{fill:#987355;fill-opacity:0.6;stroke:#444444;stroke-width:1;stroke-miterlimit:10;}
	.st9:hover{fill:#598328;fill-opacity:0.6;stroke:#444444;stroke-width:1;stroke-miterlimit:10;}

	.st10{font-family:'Open Sans';}
	.st11{font-size:8.5003px;}


	.st13{font-family:'Open Sans';}
	.st14{font-size:39.3915px;}
	.st15{fill:none;stroke:#000000;stroke-width:10.02;stroke-miterlimit:10;}
	.st16{stroke:#000000;stroke-width:10.02;stroke-miterlimit:10;}
	.st17{stroke:#000000;stroke-width:7.27;stroke-miterlimit:10;}
	.st18{fill:#FFFFFF;}
	.st19{stroke:#000000;stroke-width:2.68;stroke-miterlimit:10;}
	.st20{fill:#FFE115;}
	.st21{fill:#FF2D0A;}
	.st22{font-size:25.8327px;}

</style>
<g id="Layer_5">
	<path class="st0" d="M264.41,121.93c0,0,0.22-10.48,11.93-10.48c8.99,0,10.78,9.24,10.78,9.24l189.41,950.75l-75.66,9.54   l0.16,322.89H152.06L264.41,121.93z"/>
	<g>
		<g>
			<polyline class="st1" points="110.71,1500 104.71,1500 105.26,1494.03"/>
			<path class="st2" d="M106.35,1482.06L231.82,113.41c0,0,0-40.71,44.09-40.75c42.97-0.04,46.15,36.78,46.15,36.78l179.01,895.76"/>
			<polyline class="st1" points="502.25,1011.1 503.42,1016.98 509.3,1015.77"/>
			<line class="st3" x1="523.03" y1="1012.94" x2="571.09" y2="1003.02"/>
			<polyline class="st1" points="577.95,1001.6 583.83,1000.39 583.83,1006.39"/>
			<line class="st4" x1="583.83" y1="1018.28" x2="583.83" y2="1488.05"/>
			<polyline class="st1" points="583.83,1494 583.83,1500 577.83,1500"/>
			<line class="st5" x1="565.85" y1="1500" x2="116.7" y2="1500"/>
		</g>
	</g>
</g>
<g id="Layer_4">
	<g>
		<text transform="matrix(1 0 0 1 276.2491 279.3519)" class="st10 st11">L-01</text>
		<text transform="matrix(1 0 0 1 270.8936 345.9085)" class="st10 st11">L-02</text>
		<text transform="matrix(1 0 0 1 271.8194 395.891)" class="st10 st11">L-03</text>
		<text transform="matrix(1 0 0 1 271.8194 432.0414)" class="st10 st11">L-04</text>
		<text transform="matrix(1 0 0 1 270.8936 445.6429)" class="st10 st11">L-05</text>
		<text transform="matrix(1 0 0 1 270.0342 458.1253)" class="st10 st11">L-06</text>
		<text transform="matrix(1 0 0 1 269.1085 471.641)" class="st10 st11">L-07</text>
		<text transform="matrix(1 0 0 1 268.0889 484.6468)" class="st10 st11">L-08</text>
		<text transform="matrix(1 0 0 1 267.0674 497.9066)" class="st10 st11">L-09</text>
		<text transform="matrix(1 0 0 1 320.0167 522.0101)" class="st10 st11">L-84</text>
		<text transform="matrix(1 0 0 1 320.9424 545.4905)" class="st10 st11">L-85</text>
		<text transform="matrix(1 0 0 1 320.9424 570.9905)" class="st10 st11">L-86</text>
		<text transform="matrix(1 0 0 1 321.8682 590.6956)" class="st10 st11">L-87</text>
		<text transform="matrix(1 0 0 1 321.8663 603.7015)" class="st10 st11">L-88</text>
		<text transform="matrix(1 0 0 1 321.8682 617.348)" class="st10 st11">L-89</text>
		<text transform="matrix(1 0 0 1 321.8663 630.7659)" class="st10 st11">L-90</text>
		<text transform="matrix(1 0 0 1 322.7921 644.0296)" class="st10 st11">L-91</text>
		<text transform="matrix(1 0 0 1 265.5381 511.4222)" class="st10 st11">L-10</text>
		<text transform="matrix(1 0 0 1 264.2628 524.9378)" class="st10 st11">L-11</text>
		<text transform="matrix(1 0 0 1 262.7335 537.6878)" class="st10 st11">L-12</text>
		<text transform="matrix(1 0 0 1 262.2608 550.9124)" class="st10 st11">L-13</text>
		<text transform="matrix(1 0 0 1 261.4952 564.1741)" class="st10 st11">L-14</text>
		<text transform="matrix(1 0 0 1 260.4756 577.4339)" class="st10 st11">L-15</text>
		<text transform="matrix(1 0 0 1 259.2003 590.6937)" class="st10 st11">L-16</text>
		<text transform="matrix(1 0 0 1 258.4366 603.6995)" class="st10 st11">L-17</text>
		<text transform="matrix(1 0 0 1 256.9053 617.2151)" class="st10 st11">L-18</text>
		<text transform="matrix(1 0 0 1 256.0225 630.7659)" class="st10 st11">L-19</text>
		<text transform="matrix(1 0 0 1 254.4913 644.0276)" class="st10 st11">L-20</text>
		<text transform="matrix(1 0 0 1 253.2159 657.0316)" class="st10 st11">L-21</text>
		<text transform="matrix(1 0 0 1 252.4522 670.5491)" class="st10 st11">L-22</text>
		<text transform="matrix(1 0 0 1 251.4796 683.5569)" class="st10 st11">L-23</text>
		<text transform="matrix(1 0 0 1 250.46 696.8187)" class="st10 st11">L-24</text>
		<text transform="matrix(1 0 0 1 248.9288 709.8245)" class="st10 st11">L-25</text>
		<text transform="matrix(1 0 0 1 247.6534 723.3401)" class="st10 st11">L-26</text>
		<text transform="matrix(1 0 0 1 247.005 736.2757)" class="st10 st11">L-27</text>
		<text transform="matrix(1 0 0 1 245.7296 749.5374)" class="st10 st11">L-28</text>
		<text transform="matrix(1 0 0 1 244.2003 762.7952)" class="st10 st11">L-29</text>
		<text transform="matrix(1 0 0 1 242.0596 776.5081)" class="st10 st11">L-30</text>
		<text transform="matrix(1 0 0 1 241.5499 789.7679)" class="st10 st11">L-31</text>
		<text transform="matrix(1 0 0 1 240.5303 802.5179)" class="st10 st11">L-32</text>
		<text transform="matrix(1 0 0 1 240.0206 816.0335)" class="st10 st11">L-33</text>
		<text transform="matrix(1 0 0 1 239.255 828.7855)" class="st10 st11">L-34</text>
		<text transform="matrix(1 0 0 1 238.4893 842.555)" class="st10 st11">L-35</text>
		<text transform="matrix(1 0 0 1 236.4503 856.0706)" class="st10 st11">L-36</text>
		<text transform="matrix(1 0 0 1 235.1749 868.8206)" class="st10 st11">L-37</text>
		<text transform="matrix(1 0 0 1 234.1553 882.0823)" class="st10 st11">L-38</text>
		<text transform="matrix(1 0 0 1 233.3897 895.0862)" class="st10 st11">L-39</text>
		<text transform="matrix(1 0 0 1 231.8175 909.137)" class="st10 st11">L-40</text>
		<text transform="matrix(1 0 0 1 231.0518 921.6292)" class="st10 st11">L-41</text>
		<text transform="matrix(1 0 0 1 229.7784 934.8909)" class="st10 st11">L-42</text>
		<text transform="matrix(1 0 0 1 229.0128 948.4046)" class="st10 st11">L-43</text>
		<text transform="matrix(1 0 0 1 228.503 961.6663)" class="st10 st11">L-44</text>
		<text transform="matrix(1 0 0 1 227.9932 974.4163)" class="st10 st11">L-45</text>
		<text transform="matrix(1 0 0 1 226.462 988.4417)" class="st10 st11">L-46</text>
		<text transform="matrix(1 0 0 1 225.3468 1001.0648)" class="st10 st11">L-47</text>
		<text transform="matrix(1 0 0 1 284.4776 1008.2054)" class="st10 st11">L-133</text>
		<text transform="matrix(1 0 0 1 282.2022 1026.6664)" class="st10 st11">L-134</text>
		<text transform="matrix(1 0 0 1 280.6651 1040.1918)" class="st10 st11">L-135</text>
		<text transform="matrix(1 0 0 1 279.2139 1053.9808)" class="st10 st11">L-136</text>
		<text transform="matrix(1 0 0 1 278.3214 1066.7308)" class="st10 st11">L-137</text>
		<text transform="matrix(1 0 0 1 277.9874 1080.2484)" class="st10 st11">L-138</text>
		<text transform="matrix(1 0 0 1 276.2491 1092.9984)" class="st10 st11">L-139</text>
		<text transform="matrix(1 0 0 1 276.2491 1106.5394)" class="st10 st11">L-140</text>
		<text transform="matrix(1 0 0 1 274.7178 1119.4183)" class="st10 st11">L-141</text>
		<text transform="matrix(1 0 0 1 273.1885 1132.6781)" class="st10 st11">L-142</text>
		<text transform="matrix(1 0 0 1 272.8057 1146.0668)" class="st10 st11">L-143</text>
		<text transform="matrix(1 0 0 1 270.8956 1159.1449)" class="st10 st11">L-144</text>
		<text transform="matrix(1 0 0 1 270.0342 1172.5336)" class="st10 st11">L-145</text>
		<text transform="matrix(1 0 0 1 269.1085 1185.2836)" class="st10 st11">L-146</text>
		<text transform="matrix(1 0 0 1 268.0889 1198.1625)" class="st10 st11">L-147</text>
		<text transform="matrix(1 0 0 1 267.0694 1212.3148)" class="st10 st11">L-148</text>
		<text transform="matrix(1 0 0 1 265.5381 1225.1898)" class="st10 st11">L-149</text>
		<text transform="matrix(1 0 0 1 264.2647 1238.3226)" class="st10 st11">L-150</text>
		<text transform="matrix(1 0 0 1 263.2432 1258.4691)" class="st10 st11">L-151</text>
		<text transform="matrix(1 0 0 1 322.7921 1258.6)" class="st10 st11">L-152</text>
		<text transform="matrix(1 0 0 1 323.7198 1232.2074)" class="st10 st11">L-153</text>
		<text transform="matrix(1 0 0 1 324.6436 1204.7094)" class="st10 st11">L-154</text>
		<text transform="matrix(1 0 0 1 324.6456 1178.3148)" class="st10 st11">L-155</text>
		<text transform="matrix(1 0 0 1 324.6436 1152.3031)" class="st10 st11">L-156</text>
		<text transform="matrix(1 0 0 1 327.6163 1127.5297)" class="st10 st11">L-157</text>
		<text transform="matrix(1 0 0 1 327.6163 1099.3207)" class="st10 st11">L-158</text>
		<text transform="matrix(1 0 0 1 328.5421 1069.7972)" class="st10 st11">L-159</text>
		<text transform="matrix(1 0 0 1 361.7589 1043.4379)" class="st10 st11">L-160</text>
		<text transform="matrix(1 0 0 1 224.4229 1014.7073)" class="st10 st11">L-48</text>
		<text transform="matrix(1 0 0 1 223.6573 1027.2035)" class="st10 st11">L-49</text>
		<text transform="matrix(1 0 0 1 222.6378 1040.7191)" class="st10 st11">L-50</text>
		<text transform="matrix(1 0 0 1 220.5968 1053.9789)" class="st10 st11">L-51</text>
		<text transform="matrix(1 0 0 1 219.8311 1067.4945)" class="st10 st11">L-52</text>
		<text transform="matrix(1 0 0 1 218.8116 1080.2445)" class="st10 st11">L-53</text>
		<text transform="matrix(1 0 0 1 216.5167 1094.016)" class="st10 st11">L-54</text>
		<text transform="matrix(1 0 0 1 214.9874 1107.5316)" class="st10 st11">L-55</text>
		<text transform="matrix(1 0 0 1 214.4776 1120.2816)" class="st10 st11">L-56</text>
		<text transform="matrix(1 0 0 1 212.9464 1133.5414)" class="st10 st11">L-57</text>
		<text transform="matrix(1 0 0 1 211.671 1147.3129)" class="st10 st11">L-58</text>
		<text transform="matrix(1 0 0 1 211.1612 1160.0629)" class="st10 st11">L-59</text>
		<text transform="matrix(1 0 0 1 210.6514 1173.3226)" class="st10 st11">L-60</text>
		<text transform="matrix(1 0 0 1 208.8663 1186.5844)" class="st10 st11">L-61</text>
		<text transform="matrix(1 0 0 1 207.9093 1199.9984)" class="st10 st11">L-62</text>
		<text transform="matrix(1 0 0 1 207.6553 1212.7523)" class="st10 st11">L-63</text>
		<text transform="matrix(1 0 0 1 206.1241 1226.266)" class="st10 st11">L-64</text>
		<text transform="matrix(1 0 0 1 205.3585 1239.2679)" class="st10 st11">L-65</text>
		<text transform="matrix(1 0 0 1 204.8507 1253.0414)" class="st10 st11">L-66</text>
		<text transform="matrix(1 0 0 1 203.0636 1266.0453)" class="st10 st11">L-67</text>
		<text transform="matrix(1 0 0 1 194.8565 1292.9613)" class="st10 st11">L-68</text>
		<text transform="matrix(1 0 0 1 224.4229 1317.4418)" class="st10 st11">L-69</text>
		<text transform="matrix(0 -1 1 0 271.8155 1322.6019)" class="st10 st11">L-70</text>
		<text transform="matrix(0 -1 1 0 285.3311 1321.6722)" class="st10 st11">L-71</text>
		<text transform="matrix(0 -1 1 0 299.8663 1321.6722)" class="st10 st11">L-72</text>
		<text transform="matrix(0 -1 1 0 313.6378 1321.6722)" class="st10 st11">L-73</text>
		<text transform="matrix(0 -1 1 0 327.9171 1321.6722)" class="st10 st11">L-74</text>
		<text transform="matrix(0 -1 1 0 341.9444 1321.6722)" class="st10 st11">L-75</text>
		<text transform="matrix(0 -1 1 0 356.4796 1320.7426)" class="st10 st11">L-76</text>
		<text transform="matrix(0 -1 1 0 371.7803 1319.8129)" class="st10 st11">L-77</text>
		<text transform="matrix(0 -1 1 0 363.2393 675.348)" class="st10 st11">L-92</text>
		<text transform="matrix(0 -1 1 0 342.9151 677.4144)" class="st10 st11">L-93</text>
		<text transform="matrix(0 -1 1 0 323.7159 677.6683)" class="st10 st11">L-94</text>
		<text transform="matrix(0 -1 1 0 318.8702 737.848)" class="st10 st11">L-95</text>
		<text transform="matrix(0 -1 1 0 363.2393 735.9964)" class="st10 st11">L-97</text>
		<text transform="matrix(0 -1 1 0 373.6944 769.4066)" class="st10 st11">L-98</text>
		<text transform="matrix(0 -1 1 0 349.7237 774.6526)" class="st10 st11">L-99</text>
		<text transform="matrix(0 -1 1 0 335.8233 778.8948)" class="st10 st11">L-100</text>
		<text transform="matrix(0 -1 1 0 310.6612 835.4066)" class="st10 st11">L-102</text>
		<text transform="matrix(0 -1 1 0 313.6378 781.555)" class="st10 st11">L-101</text>
		<text transform="matrix(0 -1 1 0 330.8038 834.4808)" class="st10 st11">L-103</text>
		<text transform="matrix(0 -1 1 0 344.5733 834.4808)" class="st10 st11">L-104</text>
		<text transform="matrix(0 -1 1 0 359.6182 833.555)" class="st10 st11">L-105</text>
		<text transform="matrix(0 -1 1 0 383.8448 830.2386)" class="st10 st11">L-106</text>
		<text transform="matrix(0 -1 1 0 391.7823 863.6487)" class="st10 st11">L-107</text>
		<text transform="matrix(0 -1 1 0 370.6163 867.7269)" class="st10 st11">L-108</text>
		<text transform="matrix(0 -1 1 0 356.4776 870.0237)" class="st10 st11">L-109</text>
		<text transform="matrix(0 -1 1 0 341.9444 871.2972)" class="st10 st11">L-110</text>
		<text transform="matrix(0 -1 1 0 327.6124 872.5706)" class="st10 st11">L-111</text>
		<text transform="matrix(0 -1 1 0 302.4522 930.4847)" class="st10 st11">L-113</text>
		<text transform="matrix(0 -1 1 0 306.751 874.8909)" class="st10 st11">L-112</text>
		<text transform="matrix(0 -1 1 0 322.7901 929.5589)" class="st10 st11">L-114</text>
		<text transform="matrix(0 -1 1 0 336.3643 928.6331)" class="st10 st11">L-115</text>
		<text transform="matrix(0 -1 1 0 351.4092 927.7073)" class="st10 st11">L-116</text>
		<text transform="matrix(0 -1 1 0 365.1495 926.6761)" class="st10 st11">L-117</text>
		<text transform="matrix(0 -1 1 0 394.8975 922.9847)" class="st10 st11">L-118</text>
		<text transform="matrix(0 -1 1 0 411.7276 953.4534)" class="st10 st11">L-119</text>
		<text transform="matrix(0 -1 1 0 411.7296 1050.9144)" class="st10 st11">L-161</text>
		<text transform="matrix(0 -1 1 0 430.376 1049.9886)" class="st10 st11">L-162</text>
		<text transform="matrix(0 -1 1 0 386.1788 1014.7073)" class="st10 st11">L-128</text>
		<text transform="matrix(0 -1 1 0 415.6319 1013.7816)" class="st10 st11">L-127</text>
		<text transform="matrix(0 -1 1 0 371.7803 1014.7073)" class="st10 st11">L-129</text>
		<text transform="matrix(0 -1 1 0 357.4874 1016.4456)" class="st10 st11">L-130</text>
		<text transform="matrix(0 -1 1 0 343.462 1019.2503)" class="st10 st11">L-131</text>
		<text transform="matrix(0 -1 1 0 329.0538 1020.7816)" class="st10 st11">L-132 </text>
		<text transform="matrix(0 -1 1 0 390.5635 961.6644)" class="st10 st11">L-120</text>
		<text transform="matrix(0 -1 1 0 376.5362 961.6644)" class="st10 st11">L-121</text>
		<text transform="matrix(0 -1 1 0 362.4073 963.4456)" class="st10 st11">L-122</text>
		<text transform="matrix(0 -1 1 0 348.2686 963.6995)" class="st10 st11">L-123</text>
		<text transform="matrix(0 -1 1 0 333.7354 964.723)" class="st10 st11">L-124</text>
		<text transform="matrix(0 -1 1 0 299.8663 969.262)" class="st10 st11">L-126</text>
		<text transform="matrix(0 -1 1 0 319.4014 968.3362)" class="st10 st11">L-125</text>
		<text transform="matrix(0 -1 1 0 339.0128 736.9222)" class="st10 st11">L-96</text>
		<text transform="matrix(0 -1 1 0 365.1495 1363.4183)" class="st10 st11">L-78</text>
		<text transform="matrix(0 -1 1 0 335.8233 1365.2035)" class="st10 st11">L-79</text>
		<text transform="matrix(0 -1 1 0 306.753 1365.4613)" class="st10 st11">L-80</text>
		<text transform="matrix(0 -1 1 0 279.212 1364.5394)" class="st10 st11">L-81</text>
		<text transform="matrix(0 -1 1 0 250.4561 1364.5394)" class="st10 st11">L-82</text>
		<text transform="matrix(0 -1 1 0 215.878 1364.5394)" class="st10 st11">L-83</text>
	</g>
</g>
	<polygon id="110" class="st6" points="346.48,836.8 342.95,877.06 328.58,878.72 332.12,838.47" onclick="window.parent.getData(this.id)"/>
	<polygon id="104" class="st7" points="349.56,796.58 335.66,798.22 332.12,838.47 346.48,836.81" onclick="window.parent.getData(this.id)"/>
	<polygon id="096" class="st6" points="343.4,703.24 329.04,704.9 325.97,745.13 339.88,743.95" onclick="window.parent.getData(this.id)"/>
	<polygon id="101" class="st8" points="325.97,745.13 297.25,748.46 294.4,784.01 294.45,784.94 294.49,785.87 295.01,786.78 295.99,787.66   296.94,788.08 297.89,788.5 298.82,788.45 322.45,785.84" onclick="window.parent.getData(this.id)"/>
	<polygon id="097" class="st7" points="375.46,692.28 375.53,693.68 375.69,696.93 374.47,700.26 372.75,703.14 370.05,705.14 366.9,707.16   363.69,708.26 359.97,708.45 356.21,707.71 353.35,706.46 350.44,704.27 349.49,703.86 348.54,703.44 347.58,703.02 346.65,703.07   343.4,703.24 339.88,743.95 383.89,738.92" onclick="window.parent.getData(this.id)"/>
	<polygon id="095" class="st7" points="328.59,705.14 303.7,708.27 302.77,708.31 301.87,708.82 300.97,709.33 300.53,709.82 300.11,710.77   300.16,711.7 296.94,748.5 325.53,745.19" onclick="window.parent.getData(this.id)"/>
	<polygon id="098" class="st8" points="383.89,738.91 392.25,784.15 391.16,780.94 389.13,777.79 386.69,775.58 383.81,773.86 380.02,772.66   376.75,772.36 373.05,773.01 369.87,774.58 367.17,776.58 364.99,779.48 364.09,779.99 363.65,780.48 362.74,780.99 361.81,781.04   350.7,782.54 354.24,742.29" onclick="window.parent.getData(this.id)"/>
	<polygon id="100" class="st7" points="325.97,745.13 322.45,785.84 336.81,784.18 339.88,743.96" onclick="window.parent.getData(this.id)"/>
	<polygon id="099" class="st6" points="354.25,742.29 350.7,782.54 336.81,784.18 339.88,743.95" onclick="window.parent.getData(this.id)"/>
	<polygon id="094" class="st7" points="333.96,645.94 305.53,645.99 302.16,689.5 302.21,690.43 302.72,691.33 303.23,692.24 303.72,692.68   304.7,693.56 305.63,693.52 307.02,693.45 330.19,690.86" onclick="window.parent.getData(this.id)"/>
	<polygon id="092" class="st8" points="367.02,645.66 375.46,692.28 374.36,689.08 372.8,685.9 370.36,683.69 367.01,682 363.69,680.77   359.94,680.49 356.71,681.13 353.53,682.69 350.38,684.71 348.17,687.15 347.76,688.1 347.31,688.6 346.41,689.11 345.48,689.15   344.55,689.2 348.38,645.67" onclick="window.parent.getData(this.id)"/>
	<polygon id="091" class="st6" points="364.94,632.25 306.73,632.88 305.53,645.99 333.95,645.94 348.38,645.67 367.02,645.66" onclick="window.parent.getData(this.id)"/>
	<polygon id="090" class="st7" points="362.42,619.33 307.93,619.78 306.73,632.88 364.94,632.25" onclick="window.parent.getData(this.id)"/>
	<polygon id="089" class="st6" points="360.34,605.93 309.1,606.21 307.92,619.78 362.42,619.33" onclick="window.parent.getData(this.id)"/>
	<polygon id="088" class="st7" points="357.81,593.01 310.29,593.1 309.1,606.21 360.33,605.93" onclick="window.parent.getData(this.id)"/>
	<polygon id="087" class="st6" points="355.27,579.62 311.49,579.99 310.29,593.1 357.81,593.01" onclick="window.parent.getData(this.id)"/>
	<polygon id="086" class="st7" points="350.66,553.3 313.39,553.34 311.49,579.99 355.27,579.62" onclick="window.parent.getData(this.id)"/>
	<polygon id="085" class="st6" points="346.06,526.98 315.78,527.13 313.39,553.34 350.66,553.3" onclick="window.parent.getData(this.id)"/>
	<polygon id="084" class="st7" points="325.26,411.55 315.78,527.12 346.06,526.98" onclick="window.parent.getData(this.id)"/>
	<polygon id="083" class="st8" points="231.76,1328.17 186.12,1328.63 181.43,1382.92 232.19,1382.19" onclick="window.parent.getData(this.id)"/>
	<polygon id="162" class="st9" points="433.36,1014.56 416.21,1016.36 412.7,1057.08 440.49,1053.8" onclick="window.parent.getData(this.id)"/>
	<polygon id="112" class="st8" points="317.77,840.13 289.51,843.44 286.2,879.02 286.25,879.95 286.76,880.85 287.27,881.76 288.22,882.18   289.18,882.59 290.13,883.01 291.06,882.96 314.69,880.36" onclick="window.parent.getData(this.id)"/>
	<polygon id="015" class="st6" points="293.12,566.95 249.34,567.32 248.61,580.4 292.38,580.04" onclick="window.parent.getData(this.id)"/>
	<polygon id="014" class="st7" points="294.31,553.84 250.51,553.75 249.34,567.32 293.12,566.95" onclick="window.parent.getData(this.id)"/>
	<polygon id="013" class="st6" points="295.48,540.27 251.7,540.64 250.51,553.75 294.31,553.84" onclick="window.parent.getData(this.id)"/>
	<polygon id="012" class="st7" points="296.68,527.17 252.9,527.53 251.7,540.64 295.48,540.27" onclick="window.parent.getData(this.id)"/>
	<polygon id="011" class="st6" points="297.87,514.06 254.09,514.43 252.9,527.53 296.68,527.17" onclick="window.parent.getData(this.id)"/>
	<polygon id="010" class="st7" points="298.58,500.51 254.8,500.88 254.1,514.43 297.87,514.06" onclick="window.parent.getData(this.id)"/>
	<polygon id="009" class="st6" points="299.78,487.4 256,487.77 254.8,500.88 298.58,500.51" onclick="window.parent.getData(this.id)"/>
	<polygon id="008" class="st7" points="300.97,474.3 257.19,474.67 256,487.77 299.78,487.4" onclick="window.parent.getData(this.id)"/>
	<polygon id="007" class="st6" points="302.17,461.19 258.36,461.1 257.19,474.67 300.97,474.3" onclick="window.parent.getData(this.id)"/>
	<polygon id="006" class="st7" points="303.34,447.62 259.56,447.99 258.36,461.09 302.17,461.19" onclick="window.parent.getData(this.id)"/>
	<polygon id="005" class="st6" points="304.53,434.51 260.29,434.9 259.56,447.99 303.34,447.62" onclick="window.parent.getData(this.id)"/>
	<polygon id="004" class="st7" points="305.26,421.43 261.48,421.79 260.29,434.9 304.53,434.51" onclick="window.parent.getData(this.id)"/>
	<polygon id="003" class="st6" points="295.83,355.28 266.95,355.35 261.48,421.79 305.27,421.43 306.21,412.53" onclick="window.parent.getData(this.id)"/>
	<polygon id="002" class="st7" points="288.66,315.11 288.61,314.18 288.1,313.27 287.15,312.85 286.66,312.41 285.71,312 282.36,310.3   279.48,308.59 277.47,305.89 275.91,302.71 275.29,299.48 271.57,299.67 266.95,355.35 295.83,355.28" onclick="window.parent.getData(this.id)"/>
	<polygon id="001" class="st8" points="282.31,172.39 271.57,299.67 275.28,299.48 275.58,296.21 276.81,292.88 278.51,289.53 281.2,287.53   284.82,285.48 288.52,284.83 292.23,284.64 295.56,285.86 298.9,287.56 301.35,289.77 303.37,292.92 304.47,296.13" onclick="window.parent.getData(this.id)"/>
	<polygon id="042" class="st7" points="263.33,923.98 219.55,924.35 218.82,937.43 262.6,937.07" onclick="window.parent.getData(this.id)"/>
	<polygon id="041" class="st6" points="264.53,910.88 220.75,911.25 219.55,924.35 263.33,923.98" onclick="window.parent.getData(this.id)"/>
	<polygon id="040" class="st7" points="265.72,897.77 221.92,897.68 220.75,911.25 264.53,910.88" onclick="window.parent.getData(this.id)"/>
	<polygon id="039" class="st6" points="266.9,884.2 223.11,884.57 221.92,897.67 265.73,897.77" onclick="window.parent.getData(this.id)"/>
	<polygon id="038" class="st7" points="268.09,871.09 224.31,871.46 223.12,884.57 266.9,884.2" onclick="window.parent.getData(this.id)"/>
	<polygon id="037" class="st6" points="269.29,857.98 225.04,858.38 224.31,871.46 268.09,871.09" onclick="window.parent.getData(this.id)"/>
	<polygon id="036" class="st7" points="270.02,844.9 226.21,844.81 225.04,858.38 269.28,857.98" onclick="window.parent.getData(this.id)"/>
	<polygon id="035" class="st6" points="271.19,831.33 227.41,831.7 226.21,844.8 270.02,844.9" onclick="window.parent.getData(this.id)"/>
	<polygon id="034" class="st7" points="272.38,818.22 228.6,818.59 227.41,831.7 271.19,831.33" onclick="window.parent.getData(this.id)"/>
	<polygon id="033" class="st6" points="273.58,805.11 229.8,805.48 228.6,818.59 272.38,818.22" onclick="window.parent.getData(this.id)"/>
	<polygon id="032" class="st7" points="274.54,791.39 230.96,791.76 229.79,805.28 273.37,804.91" onclick="window.parent.getData(this.id)"/>
	<polygon id="031" class="st6" points="275.48,778.46 231.7,778.83 230.97,791.91 274.75,791.54" onclick="window.parent.getData(this.id)"/>
	<polygon id="030" class="st7" points="276.68,765.35 232.89,765.72 231.7,778.83 275.48,778.46" onclick="window.parent.getData(this.id)"/>
	<polygon id="029" class="st6" points="277.87,752.24 234.07,752.15 232.9,765.72 276.68,765.35" onclick="window.parent.getData(this.id)"/>
	<polygon id="028" class="st7" points="279.04,738.67 235.26,739.04 234.07,752.15 277.87,752.24" onclick="window.parent.getData(this.id)"/>
	<polygon id="027" class="st6" points="280.24,725.56 236.46,725.93 235.26,739.04 279.04,738.67" onclick="window.parent.getData(this.id)"/>
	<polygon id="026" class="st7" points="280.97,712.48 237.19,712.85 236.46,725.93 280.24,725.56" onclick="window.parent.getData(this.id)"/>
	<polygon id="025" class="st6" points="282.16,699.37 238.36,699.28 237.19,712.85 280.97,712.48" onclick="window.parent.getData(this.id)"/>
	<polygon id="024" class="st7" points="283.34,685.8 239.56,686.17 238.36,699.28 282.17,699.37" onclick="window.parent.getData(this.id)"/>
	<polygon id="023" class="st6" points="284.53,672.69 240.75,673.06 239.56,686.17 283.34,685.8" onclick="window.parent.getData(this.id)"/>
	<polygon id="022" class="st7" points="285.73,659.59 241.94,659.96 240.75,673.06 284.53,672.69" onclick="window.parent.getData(this.id)"/>
	<polygon id="021" class="st6" points="286.9,646.01 242.65,646.4 241.94,659.95 285.73,659.58" onclick="window.parent.getData(this.id)"/>
	<polygon id="020" class="st7" points="287.63,632.93 243.85,633.3 242.65,646.4 286.9,646.01" onclick="window.parent.getData(this.id)"/>
	<polygon id="019" class="st6" points="288.82,619.82 245.04,620.19 243.85,633.3 287.63,632.93" onclick="window.parent.getData(this.id)"/>
	<polygon id="018" class="st7" points="290.02,606.71 246.22,606.62 245.04,620.19 288.83,619.82" onclick="window.parent.getData(this.id)"/>
	<polygon id="017" class="st6" points="291.19,593.14 247.41,593.51 246.22,606.62 290.02,606.71" onclick="window.parent.getData(this.id)"/>
	<polygon id="016" class="st7" points="292.39,580.04 248.61,580.4 247.41,593.51 291.19,593.14" onclick="window.parent.getData(this.id)"/>
	<polygon id="069" class="st6" points="260.02,1288.52 251.63,1288.48 250.71,1288.52 249.78,1288.58 248.87,1289.09 248.45,1290.04   248.01,1290.53 247.6,1291.48 246.37,1294.8 244.65,1297.69 241.96,1299.69 238.77,1301.25 235.11,1302.37 231.39,1302.56   228.08,1301.79 224.74,1300.1 222.3,1297.9 186.12,1328.63 260.18,1328.11" onclick="window.parent.getData(this.id)"/>
	<polygon id="068" class="st7" points="230.89,1274.62 231.82,1274.58 232.73,1274.07 233.63,1273.55 234.08,1273.06 234.49,1272.11   234.45,1271.18 234.74,1267.91 190.96,1268.27 186.12,1328.63 222.3,1297.9 220.29,1295.2 218.73,1292.02 218.57,1288.76   218.87,1285.49 220.09,1282.16 221.84,1279.75 224.51,1277.28 227.69,1275.72" onclick="window.parent.getData(this.id)"/>
	<polygon id="067" class="st6" points="235.94,1254.8 192.16,1255.17 190.97,1268.27 234.75,1267.91" onclick="window.parent.getData(this.id)"/>
	<polygon id="066" class="st7" points="237.14,1241.69 193.35,1242.06 192.16,1255.17 235.94,1254.8" onclick="window.parent.getData(this.id)"/>
	<polygon id="065" class="st6" points="238.31,1228.12 194.53,1228.49 193.36,1242.06 237.14,1241.69" onclick="window.parent.getData(this.id)"/>
	<polygon id="064" class="st7" points="239.5,1215.01 195.72,1215.38 194.53,1228.49 238.31,1228.12" onclick="window.parent.getData(this.id)"/>
	<polygon id="063" class="st6" points="240.23,1201.93 196.45,1202.3 195.72,1215.38 239.5,1215.01" onclick="window.parent.getData(this.id)"/>
	<polygon id="062" class="st7" points="241.43,1188.82 197.65,1189.19 196.45,1202.3 240.23,1201.93" onclick="window.parent.getData(this.id)"/>
	<polygon id="061" class="st6" points="242.6,1175.25 198.82,1175.62 197.65,1189.19 241.43,1188.82" onclick="window.parent.getData(this.id)"/>
	<polygon id="060" class="st7" points="243.8,1162.14 200.01,1162.51 198.82,1175.62 242.6,1175.25" onclick="window.parent.getData(this.id)"/>
	<polygon id="059" class="st6" points="244.99,1149.03 201.21,1149.4 200.02,1162.51 243.8,1162.14" onclick="window.parent.getData(this.id)"/>
	<polygon id="058" class="st7" points="245.72,1135.95 201.91,1135.86 201.21,1149.4 244.99,1149.03" onclick="window.parent.getData(this.id)"/>
	<polygon id="057" class="st6" points="246.89,1122.38 203.11,1122.75 201.92,1135.86 245.72,1135.95" onclick="window.parent.getData(this.id)"/>
	<polygon id="056" class="st7" points="248.09,1109.27 204.31,1109.64 203.11,1122.75 246.89,1122.38" onclick="window.parent.getData(this.id)"/>
	<polygon id="055" class="st6" points="249.28,1096.16 205.5,1096.53 204.31,1109.64 248.09,1109.27" onclick="window.parent.getData(this.id)"/>
	<polygon id="054" class="st7" points="250.45,1082.59 206.67,1082.96 205.5,1096.53 249.28,1096.16" onclick="window.parent.getData(this.id)"/>
	<polygon id="053" class="st6" points="251.65,1069.48 207.41,1069.88 206.67,1082.96 250.46,1082.59" onclick="window.parent.getData(this.id)"/>
	<polygon id="052" class="st7" points="252.38,1056.4 208.6,1056.77 207.41,1069.88 251.65,1069.48" onclick="window.parent.getData(this.id)"/>
	<polygon id="051" class="st6" points="253.58,1043.29 209.8,1043.66 208.6,1056.77 252.38,1056.4" onclick="window.parent.getData(this.id)"/>
	<polygon id="050" class="st7" points="254.75,1029.72 210.97,1030.09 209.8,1043.66 253.58,1043.29" onclick="window.parent.getData(this.id)"/>
	<polygon id="049" class="st6" points="255.94,1016.61 212.16,1016.98 210.97,1030.09 254.75,1029.72" onclick="window.parent.getData(this.id)"/>
	<polygon id="048" class="st7" points="257.14,1003.51 213.36,1003.88 212.16,1016.98 255.94,1016.62" onclick="window.parent.getData(this.id)"/>
	<polygon id="047" class="st6" points="214.06,990.33 213.36,1003.88 257.14,1003.51 257.87,990.42" onclick="window.parent.getData(this.id)"/>
	<polygon id="046" class="st7" points="259.04,976.85 215.26,977.22 214.06,990.33 257.87,990.42" onclick="window.parent.getData(this.id)"/>
	<polygon id="045" class="st6" points="260.24,963.75 216.45,964.12 215.26,977.22 259.04,976.85" onclick="window.parent.getData(this.id)"/>
	<polygon id="044" class="st7" points="261.43,950.64 217.65,951.01 216.46,964.12 260.24,963.75" onclick="window.parent.getData(this.id)"/>
	<polygon id="043" class="st6" points="262.6,937.07 218.82,937.44 217.65,951.01 261.43,950.64" onclick="window.parent.getData(this.id)"/>
	<polygon id="154" class="st9" points="376.95,1187.5 302.89,1188.02 301.72,1201.59 300.99,1214.68 376.91,1214.06" onclick="window.parent.getData(this.id)"/>
	<polygon id="153" class="st8" points="376.9,1214.06 300.99,1214.68 299.79,1227.78 298.6,1240.89 376.86,1240.62" onclick="window.parent.getData(this.id)"/>
	<polygon id="152" class="st9" points="376.86,1240.62 298.59,1240.89 296.37,1270.35 372.76,1269.72 373.68,1269.67 374.59,1269.16   375.5,1268.65 375.93,1268.16 376.36,1267.21 376.79,1266.72 376.75,1265.79" onclick="window.parent.getData(this.id)"/>
	<polygon id="151" class="st7" points="298.6,1240.89 256.24,1241.65 254.24,1266.45 254.28,1267.38 254.33,1268.31 254.82,1268.75   255.8,1269.63 256.29,1270.07 257.24,1270.49 258.17,1270.44 296.37,1270.36" onclick="window.parent.getData(this.id)"/>
	<polygon id="150" class="st6" points="299.79,1227.78 257.41,1228.07 256.24,1241.65 298.6,1240.89" onclick="window.parent.getData(this.id)"/>
	<polygon id="149" class="st7" points="300.99,1214.67 258.6,1214.97 257.41,1228.07 299.79,1227.78" onclick="window.parent.getData(this.id)"/>
	<polygon id="148" class="st6" points="301.72,1201.59 259.33,1201.88 258.6,1214.97 300.99,1214.67" onclick="window.parent.getData(this.id)"/>
	<polygon id="147" class="st7" points="302.89,1188.02 260.5,1188.31 259.33,1201.89 301.72,1201.59" onclick="window.parent.getData(this.id)"/>
	<polygon id="077" class="st6" points="377.12,1291.4 377.08,1290.47 376.56,1289.56 376.07,1289.12 375.56,1288.22 374.61,1287.8   373.65,1287.38 372.72,1287.43 358.76,1287.67 358.91,1327.27 377.09,1327.28" onclick="window.parent.getData(this.id)"/>
	<polygon id="076" class="st7" points="358.76,1287.67 344.79,1287.92 344.48,1327.54 358.92,1327.27" onclick="window.parent.getData(this.id)"/>
	<polygon id="075" class="st6" points="344.79,1287.92 330.34,1287.73 330.5,1327.33 344.48,1327.54" onclick="window.parent.getData(this.id)"/>
	<polygon id="074" class="st7" points="330.34,1287.73 316.37,1287.97 316.53,1327.57 330.5,1327.32" onclick="window.parent.getData(this.id)"/>
	<polygon id="073" class="st6" points="316.38,1287.97 302.41,1288.22 302.56,1327.81 316.53,1327.57" onclick="window.parent.getData(this.id)"/>
	<polygon id="072" class="st7" points="302.41,1288.22 288.42,1288 288.11,1327.62 302.57,1327.81" onclick="window.parent.getData(this.id)"/>
	<polygon id="071" class="st6" points="288.42,1288 273.99,1288.27 274.15,1327.87 288.11,1327.62" onclick="window.parent.getData(this.id)"/>
	<polygon id="070" class="st7" points="273.99,1288.27 260.02,1288.52 260.18,1328.11 274.15,1327.87" onclick="window.parent.getData(this.id)"/>
	<polygon id="159" class="st8" points="316.16,1027.99 311.94,1082.25 376.68,1081.75 376.54,1060.79" onclick="window.parent.getData(this.id)"/>
	<polygon id="158" class="st9" points="376.68,1081.75 311.94,1082.25 310.74,1095.36 309.57,1108.93 376.64,1108.31" onclick="window.parent.getData(this.id)"/>
	<polygon id="157" class="st8" points="376.64,1108.31 309.57,1108.93 308.38,1122.04 307.19,1135.14 376.59,1134.87" onclick="window.parent.getData(this.id)"/>
	<polygon id="156" class="st9" points="376.59,1134.87 307.18,1135.14 306.47,1148.7 305.28,1161.8 377.01,1161.41" onclick="window.parent.getData(this.id)"/>
	<polygon id="155" class="st8" points="377.01,1161.41 305.28,1161.8 304.09,1174.91 302.89,1188.02 376.95,1187.5" onclick="window.parent.getData(this.id)"/>
	<polygon id="146" class="st6" points="304.09,1174.91 261.7,1175.21 260.5,1188.31 302.89,1188.02" onclick="window.parent.getData(this.id)"/>
	<polygon id="145" class="st7" points="305.28,1161.8 262.89,1162.1 261.7,1175.21 304.09,1174.91" onclick="window.parent.getData(this.id)"/>
	<polygon id="144" class="st6" points="306.48,1148.7 264.09,1148.99 262.9,1162.1 305.28,1161.8" onclick="window.parent.getData(this.id)"/>
	<polygon id="143" class="st7" points="307.18,1135.15 264.8,1135.44 264.09,1148.99 306.47,1148.7" onclick="window.parent.getData(this.id)"/>
	<polygon id="142" class="st6" points="308.38,1122.04 265.99,1122.34 264.8,1135.44 307.19,1135.15" onclick="window.parent.getData(this.id)"/>
	<polygon id="141" class="st7" points="309.57,1108.93 267.19,1109.23 265.99,1122.34 308.38,1122.04" onclick="window.parent.getData(this.id)"/>
	<polygon id="140" class="st6" points="310.75,1095.36 268.36,1095.66 267.19,1109.23 309.58,1108.93" onclick="window.parent.getData(this.id)"/>
	<polygon id="139" class="st7" points="311.94,1082.25 269.55,1082.55 268.36,1095.66 310.75,1095.36" onclick="window.parent.getData(this.id)"/>
	<polygon id="138" class="st6" points="313.14,1069.14 270.29,1069.47 269.55,1082.55 311.94,1082.25" onclick="window.parent.getData(this.id)"/>
	<polygon id="137" class="st7" points="313.87,1056.06 271.48,1056.36 270.29,1069.47 313.14,1069.14" onclick="window.parent.getData(this.id)"/>
	<polygon id="136" class="st6" points="315.04,1042.49 272.65,1042.79 271.48,1056.36 313.87,1056.06" onclick="window.parent.getData(this.id)"/>
	<polygon id="135" class="st7" points="316.23,1029.38 273.85,1029.68 272.65,1042.79 315.04,1042.49" onclick="window.parent.getData(this.id)"/>
	<polygon id="134" class="st6" points="317.43,1016.27 275.04,1016.57 273.85,1029.68 316.24,1029.38 316.16,1027.99" onclick="window.parent.getData(this.id)"/>
	<polygon id="133" class="st7" points="319.7,987.74 280.32,992.08 279.39,992.12 278.48,992.64 278.04,993.12 277.16,994.1 276.72,994.59   276.76,995.52 275.05,1016.57 317.43,1016.28" onclick="window.parent.getData(this.id)"/>
	<polygon id="132" class="st6" points="319.7,987.74 316.16,1027.99 330.52,1026.32 334.06,986.07" onclick="window.parent.getData(this.id)"/>
	<polygon id="131" class="st7" points="334.06,986.08 330.52,1026.32 344.88,1024.66 348.42,984.41" onclick="window.parent.getData(this.id)"/>
	<polygon id="130" class="st6" points="348.42,984.41 344.88,1024.66 359.24,1023 362.31,982.77" onclick="window.parent.getData(this.id)"/>
	<polygon id="129" class="st7" points="362.31,982.77 359.24,1023 373.6,1021.33 376.67,981.1" onclick="window.parent.getData(this.id)"/>
	<polygon id="128" class="st6" points="391.03,979.44 387.49,1019.69 373.6,1021.33 376.68,981.1" onclick="window.parent.getData(this.id)"/>
		<path id="160" class="st9" d="M398.44,1056.9l3.24-36.8c0.09-1.07-0.82-1.96-1.89-1.84l-12.29,1.43l-13.89,1.64l-14.36,1.66l-14.36,1.66    l-14.36,1.66l-9.03,1.05c-1.65,0.19-2.07,2.39-0.61,3.18l55.2,29.99c0.31,0.17,0.66,0.23,1.01,0.19l19.86-2.29    C397.74,1058.34,398.37,1057.7,398.44,1056.9z" onclick="window.parent.getData(this.id)"/>
	<polygon id="117" class="st8" points="370.54,888.23 356.16,889.43 352.64,930.15 367,928.48" onclick="window.parent.getData(this.id)"/>
	<polygon id="116" class="st6" points="356.16,889.43 341.8,891.1 338.26,931.34 352.64,930.15" onclick="window.parent.getData(this.id)"/>
	<polygon id="115" class="st7" points="341.8,891.09 327.44,892.76 324.36,932.98 338.26,931.35" onclick="window.parent.getData(this.id)"/>
	<polygon id="114" class="st8" points="327.44,892.76 313.54,894.4 310,934.65 324.36,932.99" onclick="window.parent.getData(this.id)"/>
	<polygon id="113" class="st7" points="313.54,894.4 288.05,897.1 287.15,897.61 286.24,898.12 285.8,898.61 284.9,899.12 284.94,900.05   284.53,901 281.29,937.98 310,934.65" onclick="window.parent.getData(this.id)"/>
	<polygon id="118" class="st7" points="408.59,876.04 408.66,877.43 408.36,880.71 407.6,884.01 405.41,886.92 403.21,889.36 400.03,890.92   396.36,892.04 393.11,892.2 389.34,891.46 386.02,890.24 383.11,888.06 382.62,887.61 381.67,887.2 380.72,886.78 379.79,886.83   370.54,888.23 367,928.48 381.36,926.82 395.72,925.15 417.03,922.67" onclick="window.parent.getData(this.id)"/>
	<polygon id="106" class="st7" points="392.26,784.15 392.33,785.54 392.03,788.82 390.8,792.15 389.08,795.03 386.41,797.5 383.23,799.05   380.03,800.15 376.31,800.34 373.01,799.58 369.68,798.35 366.78,796.17 365.82,795.75 364.87,795.33 363.92,794.91 360.84,835.14   374.74,833.5 400.22,830.81" onclick="window.parent.getData(this.id)"/>
	<polygon id="105" class="st6" points="363.92,794.91 349.56,796.58 346.48,836.8 360.84,835.14" onclick="window.parent.getData(this.id)"/>
	<polygon id="103" class="st8" points="335.66,798.22 321.31,799.88 317.77,840.13 332.12,838.47" onclick="window.parent.getData(this.id)"/>
	<polygon id="102" class="st7" points="321.3,799.88 296.28,802.56 295.35,802.61 294.44,803.12 293.54,803.63 293.12,804.58 292.7,805.53   292.26,806.02 289.51,843.44 317.76,840.14" onclick="window.parent.getData(this.id)"/>
	<polygon id="161" class="st8" points="416.21,1016.36 401.86,1018.03 398.32,1058.28 412.7,1057.08" onclick="window.parent.getData(this.id)"/>
	<polygon id="127" class="st7" points="424.92,967.93 425,969.32 425.16,972.57 423.93,975.9 422.22,978.78 419.55,981.25 416.36,982.81   413.16,983.91 409.44,984.09 405.68,983.35 402.82,982.1 399.91,979.92 398.96,979.5 398,979.09 397.07,979.13 396.12,978.72   391.03,979.44 387.49,1019.69 401.85,1018.03 433.36,1014.56" onclick="window.parent.getData(this.id)"/>
	<polygon id="107" class="st8" points="400.23,830.8 408.59,876.04 407.5,872.83 405.47,869.67 403.03,867.47 400.15,865.75 396.82,864.52   393.1,864.71 389.38,864.91 386.21,866.47 383.51,868.47 381.33,871.37 380.89,871.86 379.98,872.37 379.08,872.89 378.17,873.4   371.66,873.73 374.74,833.5" onclick="window.parent.getData(this.id)"/>
	<polygon id="108" class="st6" points="374.74,833.5 371.66,873.73 357.3,875.39 360.84,835.14" onclick="window.parent.getData(this.id)"/>
	<polygon id="109" class="st7" points="360.84,835.14 357.3,875.39 342.94,877.06 346.48,836.81" onclick="window.parent.getData(this.id)"/>
	<polygon id="111" class="st7" points="317.76,840.14 332.12,838.47 328.59,878.72 314.69,880.36" onclick="window.parent.getData(this.id)"/>
	<polygon id="126" class="st8" points="310,934.65 281.29,937.98 278.44,973.53 278.49,974.46 279,975.37 279.51,976.28 280.02,977.18   280.98,977.6 281.91,977.55 283.3,977.48 306.46,974.9" onclick="window.parent.getData(this.id)"/>
	<polygon id="119" class="st8" points="395.72,925.15 392.18,965.41 394.5,965.28 395.41,964.77 396.34,964.73 397.22,963.75 397.67,963.26   399.85,960.35 403,958.33 406.21,957.23 409.44,956.6 413.18,956.88 416.48,957.64 419.83,959.33 422.29,962.01 423.83,964.72   424.93,967.93 417.03,922.67" onclick="window.parent.getData(this.id)"/>
	<polygon id="120" class="st6" points="381.36,926.82 377.82,967.07 392.18,965.41 395.72,925.15" onclick="window.parent.getData(this.id)"/>
	<polygon id="121" class="st7" points="381.36,926.82 367,928.48 363.46,968.73 377.82,967.07 381.36,926.82" onclick="window.parent.getData(this.id)"/>
	<polygon id="122" class="st6" points="367,928.48 352.64,930.15 349.57,970.37 363.46,968.73 367,928.48" onclick="window.parent.getData(this.id)"/>
	<polygon id="123" class="st7" points="352.64,930.15 338.26,931.35 335.21,972.04 349.57,970.38 352.64,930.15" onclick="window.parent.getData(this.id)"/>
	<polygon id="124" class="st6" points="324.36,932.99 320.82,973.24 335.21,972.04 338.26,931.35" onclick="window.parent.getData(this.id)"/>
	<polygon id="125" class="st7" points="310,934.65 306.46,974.9 320.83,973.24 324.36,932.98" onclick="window.parent.getData(this.id)"/>
	<polygon id="093" class="st6" points="333.96,645.94 330.19,690.86 344.55,689.2 348.38,645.68" onclick="window.parent.getData(this.id)"/>
	<polygon id="078" class="st9" points="344.48,1327.54 344.91,1381.57 377.05,1381.33 377.09,1327.28" onclick="window.parent.getData(this.id)"/>
	<polygon id="081" class="st8" points="260.18,1328.11 260.14,1382.17 288.56,1382.11 288.11,1327.62" onclick="window.parent.getData(this.id)"/>
	<polygon id="082" class="st9" points="260.18,1328.11 260.14,1382.16 232.19,1382.19 231.76,1328.17" onclick="window.parent.getData(this.id)"/>
	<polygon id="080" class="st9" points="288.11,1327.62 288.56,1382.11 316.49,1381.62 316.53,1327.57" onclick="window.parent.getData(this.id)"/>
	<polygon id="079" class="st8" points="344.48,1327.54 344.91,1381.57 316.49,1381.62 316.53,1327.57" onclick="window.parent.getData(this.id)"/>


	<text transform="matrix(1 0 0 1 36.1599 95.0361)" class="st12 st13 st14">Etapa 1</text>
	<line class="st15" x1="149.3" y1="191.4" x2="105.2" y2="113.6"/>
	<polyline class="st16" points="149.3,191.4 61.1,191.4 105.2,113.6 149.3,191.4 "/>
	<line class="st15" x1="172.6" y1="191.4" x2="133.7" y2="124"/>
	<polygon class="st16" points="172.6,191.4 97.4,191.4 133.7,124 "/>
	<polygon class="st17" points="97.4,172.9 42.8,172.9 69.2,124 "/>
	<line class="st15" x1="108.8" y1="195" x2="108.8" y2="281.5"/>
	<line class="st15" x1="108.8" y1="258.3" x2="68.8" y2="298.3"/>
	<line class="st15" x1="108.8" y1="238.3" x2="155.2" y2="284.7"/>
	<path class="st18" d="M59.9,358.3c-4,0-8-0.7-11.8-2.1c-3.9-1.4-7.5-3.6-10.6-6.4l-2.7-2.4l10.7-12.8c-0.6-0.4-1.2-0.8-1.8-1.2   c-1.8-1.4-3.2-3.2-4.2-5.3c-1-2.3-1.5-4.9-1.4-7.4v-0.1c0-2.5,0.5-5.1,1.5-7.4c1-2.2,2.5-4.1,4.3-5.7c1.9-1.6,4.1-2.8,6.5-3.6   c2.5-0.8,5.2-1.2,7.8-1.2c3.6,0,7.3,0.6,10.7,1.8c3.3,1.2,6.3,2.9,9,5l2.7,2.2L71.3,325c1.5,0.7,3,1.7,4.3,2.8   c1.7,1.4,3,3.2,3.9,5.2c0.9,2.2,1.3,4.5,1.3,6.8v0.1c0.1,2.7-0.5,5.3-1.5,7.8c-1.1,2.3-2.6,4.3-4.6,5.9c-2,1.6-4.2,2.8-6.7,3.5   C65.3,357.9,62.6,358.3,59.9,358.3z M48.5,336.8c1.8,1.5,3.7,2.7,5.8,3.6c1.8,0.8,3.8,1.2,5.8,1.2c1.9,0,2.6-0.4,2.9-0.5L63,341   v-0.2h0c-0.7-0.4-1.4-0.7-2.1-1c-1.1-0.4-2.6-0.8-4.4-1.3c-2.3-0.6-4.6-1.2-6.8-2.1c-1.1-0.4-2.2-0.9-3.3-1.5L48.5,336.8z    M55.9,319.9c0.7,0.4,1.5,0.7,2.3,0.9c1.3,0.4,2.9,0.8,4.9,1.4c2.3,0.6,4.5,1.3,6.6,2.2l-1.7-1.2c-1.7-1.2-3.5-2.2-5.5-3   c-1.4-0.6-3-0.9-4.6-0.9c-0.7-0.1-1.5,0.1-2.2,0.4h0c0,0,0,0.1,0,0.1L55.9,319.9z"/>
	<path class="st19" d="M75.7,346.1c-0.8,1.8-2,3.3-3.5,4.5c-1.6,1.3-3.4,2.2-5.4,2.8c-2.3,0.7-4.6,1-6.9,1c-3.6,0-7.1-0.6-10.5-1.8   c-3.5-1.2-6.6-3.2-9.3-5.7l6.1-7.3c2,1.7,4.2,3.1,6.6,4.1c2.3,1,4.8,1.5,7.4,1.5c1.7,0.1,3.5-0.3,5-1.2c1.1-0.7,1.8-1.9,1.8-3.2   v-0.1c0-0.6-0.1-1.2-0.4-1.8c-0.3-0.6-0.8-1.1-1.4-1.4c-0.9-0.5-1.9-1-2.9-1.3c-1.6-0.5-3.2-1-4.8-1.4c-2.2-0.5-4.3-1.2-6.4-1.9   c-1.8-0.6-3.4-1.5-4.9-2.6c-1.3-1-2.4-2.4-3.1-3.9c-0.8-1.8-1.2-3.8-1.1-5.8v-0.1c0-2,0.4-3.9,1.2-5.8c0.8-1.7,1.9-3.2,3.4-4.4   c1.5-1.3,3.3-2.3,5.1-2.9c2.1-0.7,4.4-1,6.6-1c3.2,0,6.4,0.5,9.5,1.5c2.9,1,5.5,2.5,7.9,4.4l-5.3,7.8c-1.9-1.3-4-2.5-6.1-3.4   c-1.9-0.8-4-1.2-6-1.2c-2,0-3.5,0.4-4.5,1.2c-0.9,0.7-1.5,1.7-1.5,2.9v0.1c0,0.7,0.1,1.4,0.4,2c0.4,0.6,0.9,1.2,1.6,1.5   c1,0.5,2,1,3.1,1.3c1.3,0.4,3,0.9,5,1.4c2.2,0.6,4.3,1.3,6.3,2.1c1.7,0.7,3.3,1.6,4.7,2.8c1.2,1,2.2,2.4,2.9,3.8   c0.7,1.7,1,3.5,1,5.3v0.1C77,342,76.6,344.2,75.7,346.1z"/>
	<rect x="75.9" y="303.2" class="st18" width="17.9" height="54.4"/>
	<path class="st19" d="M79.7,353.8V307H90v46.8H79.7z"/>
	<path class="st18" d="M145,357.7l-4.3-10.5H126l-4.3,10.5H103l23.3-54.7h14.5l23.3,54.7H145z M133.9,330.6l-0.6-1.4l-0.6,1.4H133.9z   "/>
	<path class="st19" d="M147.5,353.9l-4.3-10.5h-19.8l-4.3,10.5h-10.5l20.1-47.1h9.5l20,47.1H147.5z M133.4,319.2l-6.2,15.2h12.4   L133.4,319.2z"/>
	<polygon class="st18" points="155,357.7 155,303.4 172.9,303.4 172.9,340.9 196.2,340.9 196.2,357.7 "/>
	<path class="st19" d="M158.8,353.9v-46.8h10.3v37.5h23.3v9.3H158.8z"/>
	<path class="st18" d="M103.4,372.5c-4,0-8-0.7-11.8-2.1c-3.9-1.4-7.5-3.6-10.6-6.4l-2.7-2.4L89,348.7c-0.6-0.4-1.2-0.8-1.8-1.2   c-1.8-1.4-3.2-3.2-4.2-5.3c-1-2.3-1.5-4.9-1.5-7.4v-0.1c0-2.5,0.5-5.1,1.5-7.4c1-2.2,2.5-4.2,4.3-5.8c1.9-1.6,4.1-2.8,6.4-3.6   c2.5-0.8,5.2-1.2,7.8-1.2c3.7,0,7.3,0.6,10.7,1.8c3.3,1.2,6.3,2.9,9,5l2.8,2.2l-9.3,13.5c1.5,0.7,3,1.7,4.3,2.8   c1.7,1.4,3,3.2,3.9,5.2c0.9,2.2,1.3,4.5,1.3,6.8v0.1c0,2.7-0.5,5.3-1.6,7.8c-1.1,2.3-2.6,4.3-4.6,5.9c-2,1.6-4.2,2.8-6.7,3.5   C108.8,372.1,106.1,372.5,103.4,372.5z M92,351c1.8,1.4,3.7,2.6,5.8,3.6c1.8,0.8,3.8,1.2,5.8,1.2c1.9,0,2.6-0.4,2.9-0.5l0.1-0.1V355   h0c-0.7-0.4-1.4-0.7-2.2-1c-1.4-0.5-2.9-0.9-4.4-1.3c-2.3-0.6-4.6-1.2-6.8-2.1c-1.1-0.4-2.2-0.9-3.3-1.5L92,351z M99.4,334.1   c0.7,0.4,1.5,0.7,2.3,0.9c1.3,0.4,2.9,0.8,4.9,1.4c2.3,0.6,4.5,1.3,6.6,2.2l-1.7-1.1c-1.7-1.2-3.5-2.2-5.5-3c-1.4-0.6-3-0.9-4.6-1   c-0.7-0.1-1.5,0.1-2.2,0.4h0c0,0,0,0.1,0,0.1L99.4,334.1z"/>
	<path class="st19" d="M119.2,360.3c-0.8,1.8-2,3.3-3.5,4.6c-1.6,1.3-3.4,2.2-5.4,2.8c-2.3,0.7-4.6,1-6.9,1c-3.6,0-7.1-0.6-10.5-1.8   c-3.5-1.2-6.6-3.2-9.3-5.6l6.1-7.3c2,1.7,4.2,3,6.6,4.1c2.3,1,4.8,1.6,7.4,1.5c1.7,0.1,3.5-0.3,5-1.2c1.1-0.7,1.8-1.9,1.8-3.2V355   c0-0.6-0.1-1.2-0.4-1.8c-0.3-0.6-0.8-1.1-1.4-1.4c-0.9-0.5-1.9-1-2.9-1.3c-1.2-0.4-2.8-0.9-4.8-1.4c-2.2-0.5-4.3-1.2-6.4-1.9   c-1.8-0.6-3.4-1.5-4.9-2.6c-1.3-1-2.4-2.4-3.1-3.9c-0.8-1.8-1.2-3.8-1.1-5.8v-0.1c0-2,0.4-3.9,1.2-5.8c0.8-1.7,1.9-3.2,3.4-4.5   c1.5-1.3,3.3-2.3,5.2-2.9c2.1-0.7,4.4-1,6.6-1c3.2,0,6.4,0.5,9.5,1.5c2.9,1,5.5,2.5,7.9,4.4l-5.3,7.7c-1.9-1.3-4-2.5-6.1-3.4   c-1.9-0.8-3.9-1.2-6-1.2c-2,0-3.5,0.4-4.5,1.2c-0.9,0.7-1.5,1.7-1.5,2.9v0.1c0,0.7,0.1,1.4,0.4,2c0.4,0.6,0.9,1.2,1.6,1.5   c1,0.5,2,1,3.1,1.3c1.3,0.4,3,0.9,5,1.4c2.2,0.6,4.3,1.3,6.3,2.1c1.7,0.7,3.3,1.6,4.7,2.8c1.2,1,2.2,2.4,2.9,3.8   c0.7,1.7,1,3.5,1,5.3v0.1C120.5,356.3,120.1,358.4,119.2,360.3z"/>
	<rect x="529.8" y="73.6" class="st20" width="32.1" height="16.1"/>
	<rect x="529.8" y="111.4" class="st21" width="32.1" height="16.1"/>
	<text transform="matrix(1 0 0 1 401.2432 89.2383)"><tspan x="0" y="0" class="st12 st13 st22">Apartados</tspan><tspan x="11.3" y="38.8" class="st12 st13 st22">Vendidos</tspan></text>
	<rect x="-190.7" y="260.7" class="st12" width="110.2" height="142"/>
	<text transform="matrix(1 0 0 1 413.7687 1132.5426)" class="st12 st13 st14">Etapa 1</text>
	<line class="st15" x1="526.9" y1="1228.9" x2="482.8" y2="1151.1"/>
	<polyline class="st16" points="526.9,1228.9 438.7,1228.9 482.8,1151.1 526.9,1228.9 "/>
	<line class="st15" x1="550.2" y1="1228.9" x2="511.3" y2="1161.5"/>
	<polygon class="st16" points="550.2,1228.9 475,1228.9 511.3,1161.5 "/>
	<polygon class="st17" points="475,1210.4 420.4,1210.4 446.8,1161.5 "/>
	<line class="st15" x1="486.4" y1="1232.5" x2="486.4" y2="1319"/>
	<line class="st15" x1="486.4" y1="1295.8" x2="446.4" y2="1335.8"/>
	<line class="st15" x1="486.4" y1="1275.8" x2="532.8" y2="1322.2"/>
	<path class="st18" d="M437.5,1395.8c-4,0-8-0.7-11.8-2.1c-3.9-1.4-7.5-3.6-10.6-6.4l-2.7-2.4l10.7-12.8c-0.6-0.4-1.2-0.8-1.8-1.2   c-1.8-1.4-3.2-3.2-4.2-5.3c-1-2.3-1.5-4.9-1.4-7.4v-0.1c0-2.5,0.5-5.1,1.5-7.4c1-2.2,2.5-4.1,4.3-5.7c1.9-1.6,4.1-2.8,6.5-3.6   c2.5-0.8,5.2-1.2,7.8-1.2c3.6,0,7.3,0.6,10.7,1.8c3.3,1.2,6.3,2.9,9,5l2.7,2.2l-9.3,13.5c1.5,0.7,3,1.7,4.3,2.8   c1.7,1.4,3,3.2,3.9,5.2c0.9,2.2,1.3,4.5,1.3,6.8v0.1c0.1,2.7-0.5,5.3-1.5,7.8c-1.1,2.3-2.6,4.3-4.6,5.9c-2,1.6-4.2,2.8-6.7,3.5   C442.9,1395.4,440.2,1395.8,437.5,1395.8z M426.1,1374.3c1.8,1.5,3.7,2.7,5.8,3.6c1.8,0.8,3.8,1.2,5.8,1.2c1.9,0,2.6-0.4,2.9-0.5   l0.1-0.1v-0.2h0c-0.7-0.4-1.4-0.7-2.1-1c-1.1-0.4-2.6-0.8-4.4-1.3c-2.3-0.6-4.6-1.2-6.8-2.1c-1.1-0.4-2.2-0.9-3.3-1.5L426.1,1374.3z    M433.5,1357.4c0.7,0.4,1.5,0.7,2.3,0.9c1.3,0.4,2.9,0.8,4.9,1.4c2.3,0.6,4.5,1.3,6.6,2.2l-1.7-1.2c-1.7-1.2-3.5-2.2-5.5-3   c-1.4-0.6-3-0.9-4.6-0.9c-0.7-0.1-1.5,0.1-2.2,0.4h0c0,0,0,0.1,0,0.1L433.5,1357.4z"/>
	<path class="st19" d="M453.3,1383.6c-0.8,1.8-2,3.3-3.5,4.5c-1.6,1.3-3.4,2.2-5.4,2.8c-2.3,0.7-4.6,1-6.9,1c-3.6,0-7.1-0.6-10.5-1.8   c-3.5-1.2-6.6-3.2-9.3-5.7l6.1-7.3c2,1.7,4.2,3.1,6.6,4.1c2.3,1,4.8,1.5,7.4,1.5c1.7,0.1,3.5-0.3,5-1.2c1.1-0.7,1.8-1.9,1.8-3.2   v-0.1c0-0.6-0.1-1.2-0.4-1.8c-0.3-0.6-0.8-1.1-1.4-1.4c-0.9-0.5-1.9-1-2.9-1.3c-1.6-0.5-3.2-1-4.8-1.4c-2.2-0.5-4.3-1.2-6.4-1.9   c-1.8-0.6-3.4-1.5-4.9-2.6c-1.3-1-2.4-2.4-3.1-3.9c-0.8-1.8-1.2-3.8-1.1-5.8v-0.1c0-2,0.4-3.9,1.2-5.8c0.8-1.7,1.9-3.2,3.4-4.4   c1.5-1.3,3.3-2.3,5.1-2.9c2.1-0.7,4.4-1,6.6-1c3.2,0,6.4,0.5,9.5,1.5c2.9,1,5.5,2.5,7.9,4.4l-5.3,7.8c-1.9-1.3-4-2.5-6.1-3.4   c-1.9-0.8-4-1.2-6-1.2c-2,0-3.5,0.4-4.5,1.2c-0.9,0.7-1.5,1.7-1.5,2.9v0.1c0,0.7,0.1,1.4,0.4,2c0.4,0.6,0.9,1.2,1.6,1.5   c1,0.5,2,1,3.1,1.3c1.3,0.4,3,0.9,5,1.4c2.2,0.6,4.3,1.3,6.3,2.1c1.7,0.7,3.3,1.6,4.7,2.8c1.2,1,2.2,2.4,2.9,3.8   c0.7,1.7,1,3.5,1,5.3v0.1C454.6,1379.5,454.2,1381.7,453.3,1383.6z"/>
	<rect x="453.5" y="1340.7" class="st18" width="17.9" height="54.4"/>
	<path class="st19" d="M457.3,1391.3v-46.8h10.3v46.8H457.3z"/>
	<path class="st18" d="M522.6,1395.2l-4.3-10.5h-14.7l-4.3,10.5h-18.8l23.3-54.7h14.5l23.3,54.7H522.6z M511.6,1368.1l-0.6-1.4   l-0.6,1.4H511.6z"/>
	<path class="st19" d="M525.1,1391.5l-4.3-10.5h-19.8l-4.3,10.5h-10.5l20.1-47.1h9.5l20,47.1H525.1z M511,1356.7l-6.2,15.2h12.4   L511,1356.7z"/>
	<polygon class="st18" points="532.7,1395.2 532.7,1340.9 550.5,1340.9 550.5,1378.4 573.8,1378.4 573.8,1395.2 "/>
	<path class="st19" d="M536.4,1391.5v-46.8h10.3v37.5h23.3v9.3H536.4z"/>
	<path class="st18" d="M481,1410c-4,0-8-0.7-11.8-2.1c-3.9-1.4-7.5-3.6-10.6-6.4l-2.7-2.4l10.7-12.8c-0.6-0.4-1.2-0.8-1.8-1.2   c-1.8-1.4-3.2-3.2-4.2-5.3c-1-2.3-1.5-4.9-1.5-7.4v-0.1c0-2.5,0.5-5.1,1.5-7.4c1-2.2,2.5-4.2,4.3-5.8c1.9-1.6,4.1-2.8,6.4-3.6   c2.5-0.8,5.2-1.2,7.8-1.2c3.7,0,7.3,0.6,10.7,1.8c3.3,1.2,6.3,2.9,9,5l2.8,2.2l-9.3,13.5c1.5,0.7,3,1.7,4.3,2.8   c1.7,1.4,3,3.2,3.9,5.2c0.9,2.2,1.3,4.5,1.3,6.8v0.1c0,2.7-0.5,5.3-1.6,7.8c-1.1,2.3-2.6,4.3-4.6,5.9c-2,1.6-4.2,2.8-6.7,3.5   C486.4,1409.6,483.7,1410,481,1410z M469.6,1388.5c1.8,1.4,3.7,2.6,5.8,3.6c1.8,0.8,3.8,1.2,5.8,1.2c1.9,0,2.6-0.4,2.9-0.5l0.1-0.1   v-0.2h0c-0.7-0.4-1.4-0.7-2.2-1c-1.4-0.5-2.9-0.9-4.4-1.3c-2.3-0.6-4.6-1.2-6.8-2.1c-1.1-0.4-2.2-0.9-3.3-1.5L469.6,1388.5z    M477,1371.6c0.7,0.4,1.5,0.7,2.3,0.9c1.3,0.4,2.9,0.8,4.9,1.4c2.3,0.6,4.5,1.3,6.6,2.2l-1.7-1.1c-1.7-1.2-3.5-2.2-5.5-3   c-1.4-0.6-3-0.9-4.6-1c-0.7-0.1-1.5,0.1-2.2,0.4h0c0,0,0,0.1,0,0.1L477,1371.6z"/>
	<path class="st19" d="M496.8,1397.9c-0.8,1.8-2,3.3-3.5,4.6c-1.6,1.3-3.4,2.2-5.4,2.8c-2.3,0.7-4.6,1-6.9,1c-3.6,0-7.1-0.6-10.5-1.8   c-3.5-1.2-6.6-3.2-9.3-5.6l6.1-7.3c2,1.7,4.2,3,6.6,4.1c2.3,1,4.8,1.6,7.4,1.5c1.7,0.1,3.5-0.3,5-1.2c1.1-0.7,1.8-1.9,1.8-3.2v-0.1   c0-0.6-0.1-1.2-0.4-1.8c-0.3-0.6-0.8-1.1-1.4-1.4c-0.9-0.5-1.9-1-2.9-1.3c-1.2-0.4-2.8-0.9-4.8-1.4c-2.2-0.5-4.3-1.2-6.4-1.9   c-1.8-0.6-3.4-1.5-4.9-2.6c-1.3-1-2.4-2.4-3.1-3.9c-0.8-1.8-1.2-3.8-1.1-5.8v-0.1c0-2,0.4-3.9,1.2-5.8c0.8-1.7,1.9-3.2,3.4-4.5   c1.5-1.3,3.3-2.3,5.2-2.9c2.1-0.7,4.4-1,6.6-1c3.2,0,6.4,0.5,9.5,1.5c2.9,1,5.5,2.5,7.9,4.4l-5.3,7.7c-1.9-1.3-4-2.5-6.1-3.4   c-1.9-0.8-3.9-1.2-6-1.2c-2,0-3.5,0.4-4.5,1.2c-0.9,0.7-1.5,1.7-1.5,2.9v0.1c0,0.7,0.1,1.4,0.4,2c0.4,0.6,0.9,1.2,1.6,1.5   c1,0.5,2,1,3.1,1.3c1.3,0.4,3,0.9,5,1.4c2.2,0.6,4.3,1.3,6.3,2.1c1.7,0.7,3.3,1.6,4.7,2.8c1.2,1,2.2,2.4,2.9,3.8   c0.7,1.7,1,3.5,1,5.3v0.1C498.1,1393.8,497.7,1395.9,496.8,1397.9z"/>
</svg>